<?xml version="1.0" encoding="UTF-8" standalone="no"?>
<!-- Created with Inkscape (http://www.inkscape.org/) -->

<svg
   width="122.3112mm"
   height="34.98262mm"
   viewBox="0 0 122.3112 34.98262"
   version="1.1"
   id="svg1"
   xml:space="preserve"
   xmlns:inkscape="http://www.inkscape.org/namespaces/inkscape"
   xmlns:sodipodi="http://sodipodi.sourceforge.net/DTD/sodipodi-0.dtd"
   xmlns="http://www.w3.org/2000/svg"
   xmlns:svg="http://www.w3.org/2000/svg"><sodipodi:namedview
     id="namedview1"
     pagecolor="#505050"
     bordercolor="#ffffff"
     borderopacity="1"
     inkscape:showpageshadow="0"
     inkscape:pageopacity="0"
     inkscape:pagecheckerboard="1"
     inkscape:deskcolor="#505050"
     inkscape:document-units="mm"
     inkscape:zoom="2.3458525"
     inkscape:cx="251.50771"
     inkscape:cy="260.67282"
     inkscape:window-width="3840"
     inkscape:window-height="2120"
     inkscape:window-x="-12"
     inkscape:window-y="-12"
     inkscape:window-maximized="1"
     inkscape:current-layer="layer1" /><defs
     id="defs1" /><g
     inkscape:label="Layer 1"
     inkscape:groupmode="layer"
     id="layer1"
     transform="translate(-19.493351,-102.42398)"><path
       style="fill:#000000"
       d="m 36.352976,137.33926 c -0.903867,-0.0553 -2.509466,-0.28737 -3.462027,-0.50033 -1.830166,-0.40918 -3.381153,-1.04023 -4.963729,-2.01962 -1.141087,-0.70617 -1.701585,-1.13166 -2.788955,-2.11717 l -0.841293,-0.76248 -0.667738,-0.80571 c -2.212316,-2.66943 -3.430975,-5.37516 -3.929009,-8.72338 l -0.144854,-0.97383 -0.03101,-9.50544 -0.03101,-9.50544 h 3.514433 3.514432 l 0.02921,9.12438 0.02921,9.12437 0.141377,0.76466 c 0.07776,0.42056 0.239777,1.10647 0.360042,1.52425 l 0.218665,0.75961 0.448436,0.93149 0.448435,0.93149 0.507201,0.67745 c 0.278961,0.37259 0.792374,0.94707 1.140919,1.27662 l 0.633718,0.59918 0.845651,0.56298 c 0.465108,0.30963 1.168766,0.71439 1.563685,0.89945 l 0.718035,0.33648 0.801491,0.20768 c 0.44082,0.11422 1.144448,0.24949 1.563619,0.3006 l 0.762129,0.0929 8.955012,2.4e-4 8.955012,2.3e-4 v 3.42958 3.42958 l -8.912672,-0.0157 c -4.901969,-0.009 -9.122257,-0.0285 -9.378417,-0.0442 z m 21.932371,-3.53527 v -3.60277 l 12.045867,-6.4e-4 12.045868,-6.4e-4 0.550426,-0.0878 0.550426,-0.0878 0.508086,-0.23842 0.508086,-0.23843 0.32914,-0.32359 c 0.449075,-0.44152 0.773333,-0.9742 0.990788,-1.62765 l 0.182571,-0.54863 -0.04138,-0.6461 -0.04138,-0.6461 -0.190016,-0.49578 -0.190016,-0.49579 -0.519854,-0.52748 -0.519853,-0.52748 -0.550426,-0.26578 -0.550427,-0.26579 -0.550426,-0.0864 -0.550426,-0.0864 -7.331152,-6.4e-4 -7.331152,-6.4e-4 -0.795989,-0.13673 c -2.137173,-0.36712 -3.945536,-1.32236 -5.605842,-2.9612 -0.407387,-0.40212 -0.914371,-0.96216 -1.126631,-1.24453 -0.722777,-0.96151 -1.35761,-2.51125 -1.601419,-3.90936 l -0.130188,-0.74655 v -1.29037 -1.29037 l 0.129229,-0.75205 c 0.468214,-2.72478 1.968298,-4.85511 4.644978,-6.59652 1.216051,-0.79114 2.423971,-1.22691 4.159635,-1.50062 l 0.677447,-0.10684 h 12.448102 12.448102 l 0.02208,3.61874 0.02208,3.61874 -12.42784,0.0225 -12.42784,0.0226 -0.469609,0.22026 c -0.865153,0.40579 -1.331513,0.95248 -1.696051,1.98821 l -0.176446,0.50132 0.04782,0.55041 0.04782,0.55041 0.257843,0.52375 0.257843,0.52375 0.437562,0.39341 c 0.24066,0.21637 0.591979,0.47608 0.78071,0.57712 l 0.343147,0.18371 7.705968,0.0504 7.705968,0.0504 0.895623,0.13399 c 1.270893,0.19013 1.871849,0.36028 2.772513,0.785 2.452446,1.15648 4.065892,2.61458 5.151689,4.65567 0.443382,0.83347 0.729238,1.63337 1.013113,2.83494 l 0.210063,0.88915 0.05006,1.1916 0.05006,1.1916 -0.145908,0.87259 c -0.435353,2.6036 -1.71205,4.70632 -4.027205,6.63279 l -0.804469,0.66941 -0.93149,0.45464 c -1.133597,0.55329 -1.99691,0.84631 -3.029226,1.02814 l -0.781418,0.13765 -12.723315,0.0328 -12.723315,0.0328 z m 38.699201,-13.89245 v -17.48756 l 3.493092,0.0221 3.49309,0.0221 0.0214,17.46545 0.0214,17.46545 h -3.51446 -3.514462 z m 20.162722,17.39896 c -1.6642,-0.13324 -2.91947,-0.49491 -4.41108,-1.27093 l -0.66147,-0.34413 -0.79178,-0.65679 c -2.19083,-1.8173 -3.56583,-4.01014 -3.96251,-6.31935 l -0.10182,-0.59276 0.0301,-8.72214 0.0301,-8.72214 0.1815,-0.67745 c 0.0998,-0.3726 0.31412,-0.99176 0.4762,-1.37592 l 0.2947,-0.69847 0.49,-0.74111 0.49,-0.7411 0.76906,-0.76213 0.76905,-0.76213 0.76003,-0.53719 c 0.41801,-0.29545 1.1057,-0.70557 1.5282,-0.91136 l 0.76817,-0.37417 0.81628,-0.20707 c 0.44896,-0.11389 1.15121,-0.25632 1.56056,-0.31651 l 0.74427,-0.10945 h 12.40576 12.40576 l 0.0221,3.61874 0.0221,3.61874 -12.42784,0.0225 -12.42784,0.0226 -0.46961,0.22026 c -0.8652,0.40581 -1.33857,0.96071 -1.68936,1.98029 l -0.16976,0.49341 v 1.67531 1.67531 l 8.65863,0.0354 8.65863,0.0354 0.80447,0.13962 c 0.44245,0.0768 1.0331,0.19683 1.31255,0.26676 l 0.50809,0.12715 0.97383,0.47174 c 1.23734,0.59938 2.17559,1.22342 3.01085,2.00254 l 0.65941,0.61509 0.46083,0.62238 c 0.90236,1.21869 1.43875,2.42618 1.84886,4.16209 l 0.21006,0.88915 0.0501,1.1916 0.0501,1.1916 -0.1459,0.87259 c -0.43536,2.6036 -1.71205,4.70632 -4.02721,6.63279 l -0.80447,0.66941 -0.93149,0.45464 c -1.15729,0.56486 -2.00483,0.84883 -3.06955,1.02848 l -0.82577,0.13933 -6.98618,0.0189 -6.98618,0.0189 z m 14.13307,-7.19833 0.55043,-0.0878 0.50808,-0.23842 0.50809,-0.23843 0.32914,-0.32359 c 0.44907,-0.44152 0.77333,-0.9742 0.99079,-1.62765 l 0.18257,-0.54863 -0.0414,-0.6461 -0.0414,-0.6461 -0.19002,-0.49578 -0.19002,-0.49579 -0.51985,-0.52748 -0.51985,-0.52748 -0.55043,-0.26578 -0.55042,-0.26579 -0.55043,-0.0864 -0.55043,-0.0864 -8.02352,-6.4e-4 -8.02352,-6.4e-4 v 2.06143 2.06142 l 0.16976,0.49341 c 0.22678,0.65916 0.5058,1.11982 0.94678,1.56317 l 0.36538,0.36733 0.50808,0.23872 0.50809,0.23873 0.46574,0.0769 0.46575,0.0769 6.35107,0.009 6.35107,0.009 z"
       id="path1"
       inkscape:export-filename="lspc2logo.svg"
       inkscape:export-xdpi="96"
       inkscape:export-ydpi="96" /></g></svg>
